<svg width="63" height="59" viewBox="0 0 63 59" fill="none" xmlns="http://www.w3.org/2000/svg">
<g clip-path="url(#clip0_3_10)">
<path d="M61.5397 0L34.5071 19.9811L39.534 8.20567L61.5397 0Z" fill="#E17726"/>
<path d="M1.52357 0.0236053L23.4704 8.20715L28.2437 20.137L1.52357 0.0236053ZM50.6609 42.4943L62.609 42.7214L58.4332 56.8917L43.8539 52.882L50.6609 42.4943ZM12.3389 42.4943L19.1205 52.882L4.56578 56.892L0.415405 42.7214L12.3389 42.4943Z" fill="#E27625"/>
<path d="M27.5947 17.0982L28.083 32.8519L13.4722 32.1879L17.6282 25.9246L17.6809 25.8644L27.5947 17.0982ZM35.2539 16.9224L45.3192 25.8649L45.3713 25.9248L49.5274 32.1882L34.9197 32.8519L35.2539 16.9224ZM19.5485 42.54L27.5263 48.7495L18.2589 53.219L19.5485 42.54ZM43.453 42.539L44.7157 53.2192L35.4742 48.749L43.453 42.539Z" fill="#E27625"/>
<path d="M35.6782 48.1642L45.0561 52.7003L36.3328 56.8416L36.4234 54.1045L35.6782 48.1642ZM27.3191 48.1661L26.6032 54.0597L26.662 56.8384L17.9183 52.7003L27.3191 48.1661Z" fill="#D5BFB2"/>
<path d="M24.6111 34.9081L27.0617 40.0529L18.7184 37.6113L24.6111 34.9081ZM38.3887 34.9086L44.3092 37.6113L35.9385 40.0521L38.3887 34.9086Z" fill="#233447"/>
<path d="M20.1861 42.4874L18.8375 53.5597L11.609 42.7295L20.1861 42.4874ZM42.8144 42.4876L51.3918 42.7295L44.1362 53.5602L42.8144 42.4876ZM49.7385 31.5618L43.4964 37.9168L38.6835 35.7198L36.3793 40.5588L34.8688 32.2376L49.7385 31.5618ZM13.2583 31.5618L28.131 32.2376L26.6202 40.5588L24.3156 35.7206L19.5283 37.9171L13.2583 31.5618Z" fill="#CC6228"/>
<path d="M12.8378 30.2577L19.9002 37.4166L20.1448 44.484L12.8378 30.2577ZM50.1695 30.2449L42.8491 44.4966L43.1248 37.4166L50.1695 30.2449ZM27.7857 30.6938L28.07 32.481L28.7723 36.9333L28.3208 50.6077L26.1859 39.6227L26.1852 39.5091L27.7857 30.6938ZM35.2106 30.6689L36.8154 39.5091L36.8147 39.6227L34.6744 50.6353L34.5897 47.8807L34.2558 36.8521L35.2106 30.6689Z" fill="#E27525"/>
<path d="M43.7525 37.1321L43.5135 43.2726L36.0633 49.071L34.5572 48.0081L36.2454 39.3215L43.7525 37.1321ZM19.2733 37.1321L26.7543 39.3215L28.4425 48.0081L26.9364 49.071L19.4859 43.2721L19.2733 37.1321Z" fill="#F5841F"/>
<path d="M16.4927 51.3443L26.0244 55.8558L25.984 53.9292L26.7816 53.2298H36.2154L37.0417 53.9267L36.9807 55.8519L46.4521 51.3556L41.8433 55.1601L36.2705 58.9835H26.7051L21.136 55.1443L16.4927 51.3443Z" fill="#C0AC9D"/>
<path d="M34.9955 47.5636L36.3431 48.5147L37.1328 54.809L35.9899 53.8451H27.0134L25.8922 54.8285L26.6561 48.5152L28.0042 47.5636H34.9955Z" fill="#161616"/>
<path d="M59.755 0.553131L63 10.2776L60.9734 20.1102L62.4165 21.2221L60.4638 22.7103L61.9315 23.8426L59.9881 25.6104L61.1811 26.4736L58.0149 30.1674L45.0285 26.3902L44.916 26.33L35.5578 18.4441L59.755 0.553131ZM3.24499 0.553131L27.4424 18.4441L18.084 26.33L17.9715 26.3902L4.98512 30.1674L1.81888 26.4736L3.01096 25.6112L1.06879 23.8426L2.53354 22.7116L0.551496 21.2191L2.04898 20.1065L0 10.2781L3.24499 0.553131Z" fill="#763E1A"/>
<path d="M44.3933 25.5642L58.1532 29.5661L62.6235 43.3293H50.8297L42.7037 43.4316L48.6133 31.9247L44.3933 25.5642ZM18.6066 25.5642L14.3859 31.9247L20.2963 43.4316L12.174 43.3293H0.401367L4.84656 29.5664L18.6066 25.5642ZM40.2078 8.14003L36.3591 18.5238L35.5423 32.551L35.2298 36.9478L35.2049 48.1794H27.7948L27.7707 36.9689L27.4572 32.5473L26.6401 18.5238L22.792 8.14003H40.2078Z" fill="#F5841F"/>
</g>
<defs>
<clipPath id="clip0_3_10">
<rect width="63" height="59" fill="white"/>
</clipPath>
</defs>
</svg>
